<svg xmlns="http://www.w3.org/2000/svg" viewBox="0 0 1920 1080" preserveAspectRatio="xMidYMid slice">
  <defs>
    <linearGradient id="cielo" x1="0" y1="0" x2="0" y2="1">
      <stop offset="0" stop-color="#F6E3B8"/><stop offset=".45" stop-color="#EFC684"/>
      <stop offset=".75" stop-color="#D98E4A"/><stop offset="1" stop-color="#9C5A30"/>
    </linearGradient>
    <radialGradient id="sol" cx=".5" cy=".5" r=".5">
      <stop offset="0" stop-color="#FFF3D0"/><stop offset=".6" stop-color="#F7D488" stop-opacity=".9"/><stop offset="1" stop-color="#F7D488" stop-opacity="0"/>
    </radialGradient>
  </defs>
  <rect width="1920" height="1080" fill="url(#cielo)"/>
  <circle cx="1150" cy="560" r="330" fill="url(#sol)"/>
  <circle cx="1150" cy="560" r="95" fill="#FBE9BC"/>
  <!-- colinas -->
  <path d="M0,760 C300,700 500,780 800,740 C1100,700 1400,780 1920,720 L1920,1080 L0,1080 Z" fill="#7A4526" opacity=".55"/>
  <path d="M0,840 C400,790 700,860 1100,820 C1400,790 1700,850 1920,810 L1920,1080 L0,1080 Z" fill="#5A2F1A" opacity=".8"/>
  <path d="M0,930 C500,890 900,950 1400,910 C1650,890 1800,930 1920,915 L1920,1080 L0,1080 Z" fill="#3A1D10"/>
  <!-- camino -->
  <path d="M960,1080 C930,1000 880,960 830,930 C900,955 960,1000 1010,1080 Z" fill="#C99B5E" opacity=".7"/>
  <!-- molinos -->
  <g fill="#2C160B">
    <g transform="translate(560,690)">
      <path d="M-28,130 L28,130 L20,0 L-20,0 Z"/><circle cx="0" cy="-8" r="24"/>
      <g stroke="#2C160B" stroke-width="9" stroke-linecap="round">
        <line x1="0" y1="-8" x2="85" y2="-60"/><line x1="0" y1="-8" x2="-80" y2="-70"/>
        <line x1="0" y1="-8" x2="60" y2="72"/><line x1="0" y1="-8" x2="-70" y2="55"/>
      </g>
    </g>
    <g transform="translate(300,760) scale(.7)">
      <path d="M-28,130 L28,130 L20,0 L-20,0 Z"/><circle cx="0" cy="-8" r="24"/>
      <g stroke="#2C160B" stroke-width="9" stroke-linecap="round">
        <line x1="0" y1="-8" x2="80" y2="-65"/><line x1="0" y1="-8" x2="-85" y2="-55"/>
        <line x1="0" y1="-8" x2="65" y2="68"/><line x1="0" y1="-8" x2="-60" y2="70"/>
      </g>
    </g>
    <g transform="translate(760,745) scale(.5)">
      <path d="M-28,130 L28,130 L20,0 L-20,0 Z"/><circle cx="0" cy="-8" r="24"/>
      <g stroke="#2C160B" stroke-width="10" stroke-linecap="round">
        <line x1="0" y1="-8" x2="85" y2="-55"/><line x1="0" y1="-8" x2="-75" y2="-70"/>
        <line x1="0" y1="-8" x2="70" y2="60"/><line x1="0" y1="-8" x2="-65" y2="65"/>
      </g>
    </g>
  </g>
  <!-- silueta de Alcalá a la derecha -->
  <g fill="#31190D" opacity=".9">
    <rect x="1560" y="640" width="360" height="320"/>
    <rect x="1600" y="560" width="60" height="120"/><path d="M1600,560 L1630,510 L1660,560 Z"/>
    <rect x="1760" y="530" width="70" height="150"/><path d="M1760,530 L1795,470 L1830,530 Z"/>
    <rect x="1680" y="610" width="200" height="60"/>
  </g>
  <!-- motas de luz -->
  <g fill="#FBE9BC">
    <circle cx="1250" cy="380" r="3" opacity=".8"/><circle cx="1420" cy="300" r="2.4" opacity=".6"/>
    <circle cx="1330" cy="480" r="2" opacity=".7"/><circle cx="1520" cy="420" r="2.6" opacity=".5"/>
    <circle cx="1180" cy="260" r="2" opacity=".6"/><circle cx="1610" cy="330" r="2.2" opacity=".6"/>
  </g>
</svg>
