<svg xmlns="http://www.w3.org/2000/svg" viewBox="0 0 400 260" preserveAspectRatio="xMidYMid slice">
  <rect width="400" height="260" fill="#3A2415"/>
  <rect x="0" y="200" width="400" height="60" fill="#2A1A0E"/>
  <g transform="translate(70,120)">
    <rect x="0" y="0" width="34" height="90" rx="3" fill="#7E241B"/><rect x="36" y="8" width="30" height="82" rx="3" fill="#96741F"/>
    <rect x="68" y="-4" width="36" height="94" rx="3" fill="#4C3E28"/><rect x="106" y="12" width="28" height="78" rx="3" fill="#7E241B"/>
  </g>
  <rect x="200" y="170" width="130" height="44" rx="4" fill="#E9DDBE" transform="rotate(-6 265 192)"/>
  <path d="M330,90 C310,120 290,150 268,182 L262,196 L276,190 C298,158 318,126 336,96 Z" fill="#E9DDBE"/>
  <circle cx="258" cy="200" r="7" fill="#1B2440"/>
  <circle cx="150" cy="70" r="26" fill="#F7D488" opacity=".35"/>
</svg>
